<?xml version="1.0" encoding="UTF-8"?>
<svg id="Layer_1" xmlns="http://www.w3.org/2000/svg" version="1.1" viewBox="0 0 1200 650">
  <!-- Generator: Adobe Illustrator 30.1.0, SVG Export Plug-In . SVG Version: 2.1.1 Build 136)  -->
  <defs>
    <style>
      .st0 {
        stroke-width: 2.48px;
      }

      .st0, .st1, .st2 {
        fill: none;
        stroke: #707071;
        stroke-miterlimit: 10;
      }

      .st1 {
        stroke-width: 8.34px;
      }

      .st2 {
        stroke-width: 2.47px;
      }
    </style>
  </defs>
  <g>
    <g>
      <line class="st2" x1="400.96" y1="229.02" x2="505.64" y2="229.02"/>
      <line class="st2" x1="400.96" y1="214.75" x2="505.64" y2="214.75"/>
      <line class="st2" x1="400.96" y1="200.47" x2="505.64" y2="200.47"/>
      <line class="st2" x1="400.96" y1="186.2" x2="505.64" y2="186.2"/>
      <line class="st2" x1="400.96" y1="171.93" x2="505.64" y2="171.93"/>
      <line class="st2" x1="400.96" y1="157.65" x2="505.64" y2="157.65"/>
      <line class="st2" x1="400.96" y1="143.38" x2="505.64" y2="143.38"/>
      <line class="st2" x1="400.96" y1="129.11" x2="505.64" y2="129.11"/>
    </g>
    <path class="st2" d="M453.3,229.03v-127.38s0,127.38,0,127.38Z"/>
  </g>
  <g>
    <g>
      <line class="st0" x1="850.13" y1="471.6" x2="718.25" y2="471.6"/>
      <line class="st0" x1="850.13" y1="483.56" x2="718.25" y2="483.56"/>
      <line class="st0" x1="850.13" y1="495.51" x2="718.25" y2="495.51"/>
      <line class="st0" x1="850.13" y1="507.47" x2="718.25" y2="507.47"/>
      <line class="st0" x1="850.13" y1="519.42" x2="718.25" y2="519.42"/>
      <line class="st0" x1="850.13" y1="531.37" x2="718.25" y2="531.37"/>
    </g>
    <path class="st0" d="M784.19,471.6v76.2s0-76.2,0-76.2Z"/>
  </g>
  <g>
    <g>
      <line class="st0" x1="288.38" y1="468.28" x2="209.29" y2="468.28"/>
      <line class="st0" x1="288.38" y1="477.23" x2="209.29" y2="477.23"/>
      <line class="st0" x1="288.38" y1="486.17" x2="209.29" y2="486.17"/>
      <line class="st0" x1="288.38" y1="495.12" x2="209.29" y2="495.12"/>
      <line class="st0" x1="288.38" y1="504.06" x2="209.29" y2="504.06"/>
      <line class="st0" x1="288.38" y1="513.01" x2="209.29" y2="513.01"/>
      <line class="st0" x1="288.38" y1="521.95" x2="209.29" y2="521.95"/>
      <line class="st0" x1="288.38" y1="530.9" x2="209.29" y2="530.9"/>
    </g>
    <path class="st0" d="M248.84,468.28v79.52s0-79.52,0-79.52Z"/>
  </g>
  <line class="st1" x1="391.05" y1="548.12" x2="520.87" y2="548.12"/>
  <line class="st1" x1="604.62" y1="456.76" x2="824.84" y2="456.76"/>
  <line class="st1" x1="604.62" y1="548.35" x2="604.62" y2="350.83"/>
  <polyline class="st1" points="718.25 547.8 718.25 456.76 718.25 353.97 629.77 353.97"/>
  <line class="st1" x1="111.87" y1="457.11" x2="589.76" y2="457.11"/>
  <line class="st1" x1="400.72" y1="547.8" x2="400.72" y2="350.81"/>
  <polyline class="st1" points="375.45 353.97 288.38 353.97 288.38 547.8"/>
  <line class="st1" x1="111.87" y1="353.97" x2="212.48" y2="353.97"/>
  <line class="st1" x1="209.29" y1="547.8" x2="209.29" y2="401.99"/>
  <line class="st1" x1="375.45" y1="226.68" x2="136.93" y2="226.68"/>
  <line class="st1" x1="264.96" y1="101.65" x2="264.96" y2="226.68"/>
  <line class="st1" x1="400.96" y1="230.55" x2="400.96" y2="101.65"/>
  <line class="st1" x1="505.64" y1="230.55" x2="505.64" y2="101.65"/>
  <line class="st1" x1="604.62" y1="230.55" x2="604.62" y2="101.65"/>
  <line class="st1" x1="714.73" y1="226.68" x2="714.73" y2="101.65"/>
  <line class="st1" x1="629.77" y1="226.68" x2="824.84" y2="226.68"/>
  <line class="st1" x1="850.13" y1="229.97" x2="850.13" y2="101.65"/>
  <line class="st1" x1="966.25" y1="147.98" x2="966.25" y2="101.65"/>
  <line class="st1" x1="962.06" y1="168.58" x2="1088.13" y2="168.58"/>
  <line class="st1" x1="965.93" y1="314.18" x2="1088.13" y2="314.18"/>
  <line class="st1" x1="965.93" y1="432.74" x2="965.93" y2="191.51"/>
  <polyline class="st1" points="965.93 345.77 897.34 345.77 897.34 282.35 965.93 282.35"/>
  <line class="st1" x1="850.13" y1="456.76" x2="1088.13" y2="456.76"/>
  <line class="st1" x1="850.13" y1="548.12" x2="850.13" y2="395.09"/>
  <polyline class="st1" points="718.25 547.8 111.87 547.8 111.87 101.65 1088.13 101.65 1088.13 548.12 718.25 548.12"/>
</svg>