<svg id="Layer_1" xmlns="http://www.w3.org/2000/svg" viewBox="0 0 1200 650">
  <defs>
    <style>
      .st0{stroke-width:1.39px}
      .st0,.st1,.st2,.st3,.st4,.st5,.st6{fill:none;stroke:#707071;stroke-miterlimit:10}
      .st1{stroke-width:8.34px}
      .st2{stroke-width:8.38px}
      .st3{stroke-width:1.31px}
      .st4{stroke-width:1.23px}
      .st5{stroke-width:1.75px}
      .st6{stroke-width:1.48px}
    </style>
  </defs>

  <path class="st1" d="M148.71 498.02 L148.71 389.54 L105.93 389.54 L105.93 151.98 L254.13 151.98 L254.13 277.26 L254.13 219.21 L337.38 219.21 L254.13 219.21 L254.13 151.98 L364.12 151.98 L477.15 151.98 L639.61 151.98 L639.61 255.11 L728.07 255.11 L639.61 255.11 L639.61 151.98 L858.34 151.98 L858.34 230.66 L755.23 230.66 L755.23 255.11 L755.23 230.66 L933.21 230.66 L858.34 230.66 L858.34 151.98 L1084.45 151.98 L1084.45 274.97 L966.05 274.97 L966.05 256.64 L794.53 256.64 L882.02 256.64 L882.02 281.83 L882.02 256.64 L966.05 256.64 L966.05 302.46 L838.48 302.46 L966.05 302.46 L966.05 274.97 L1084.45 274.97 L1084.45 389.54 L1084.45 498.02 L1084.45 389.54 L965.28 389.54 L965.28 324.93 L840.77 324.93 L965.28 324.93 L965.28 389.54 L841.53 389.54 L841.53 349.06 L841.53 498.02"/>

  <path class="st1" d="M750.06 498.02 L750.06 387.64 L464.76 387.64 L515.67 387.64 L515.67 498.02 L515.67 322.71 L515.67 387.64 L750.06 387.64 L750.06 325 L543.82 325 L540.77 325"/>

  <path class="st1" d="M475.07 315.45 L367.37 315.45"/>

  <path class="st1" d="M380.73 388.4 L329.93 388.4 L329.93 349.82 L272.64 349.82 L329.93 349.82 L329.93 388.4 L254.31 388.4 L254.31 299.79 L254.31 496.1 L329.56 496.1 L329.56 410.36"/>

  <path class="st2" d="M1089.26 498.02 L511.59 498.02"/>

  <path class="st4" d="M842.1 389.54 L750.06 389.54"/>
  <path class="st4" d="M842.1 401.7 L750.06 401.7"/>
  <path class="st4" d="M842.1 413.85 L750.06 413.85"/>
  <path class="st4" d="M842.1 426.01 L750.06 426.01"/>
  <path class="st4" d="M842.1 438.17 L750.06 438.17"/>
  <path class="st4" d="M842.1 450.32 L750.06 450.32"/>
  <path class="st4" d="M842.1 462.48 L750.06 462.48"/>
  <path class="st4" d="M842.1 474.63 L750.06 474.63"/>

  <path class="st0" d="M796.08 498.02 L796.08 389.55"/>

  <path class="st3" d="M254.31 389.54 L149.62 389.54"/>
  <path class="st3" d="M254.31 401.7 L149.62 401.7"/>
  <path class="st3" d="M254.31 413.85 L149.62 413.85"/>
  <path class="st3" d="M254.31 426.01 L149.62 426.01"/>
  <path class="st3" d="M254.31 438.17 L149.62 438.17"/>
  <path class="st3" d="M254.31 450.32 L149.62 450.32"/>
  <path class="st3" d="M254.31 462.48 L149.62 462.48"/>
  <path class="st3" d="M254.31 474.63 L149.62 474.63"/>

  <path class="st6" d="M201.96 498.02 L201.96 389.55"/>

  <path class="st1" d="M145.15 496.1 L250.33 496.1"/>

  <path class="st5" d="M374.19 256.24 L477.15 256.24"/>
  <path class="st5" d="M374.19 244.55 L477.15 244.55"/>
  <path class="st5" d="M374.19 232.87 L477.15 232.87"/>
  <path class="st5" d="M374.19 221.19 L477.15 221.19"/>
  <path class="st5" d="M374.19 209.5 L477.15 209.5"/>
  <path class="st5" d="M374.19 197.82 L477.15 197.82"/>
  <path class="st5" d="M374.19 186.13 L477.15 186.13"/>
  <path class="st5" d="M374.19 174.45 L477.15 174.45"/>

  <path class="st5" d="M425.67 256.24 L425.67 151.98"/>

  <path class="st1" d="M374.19 257.02 L374.19 151.98"/>
  <path class="st1" d="M603.96 255.06 L477.15 255.06 L477.15 150.02"/>

</svg>
