<?xml version="1.0" encoding="UTF-8"?>
<svg id="Layer_1" xmlns="http://www.w3.org/2000/svg" version="1.1" viewBox="0 0 1200 650">
  <!-- Generator: Adobe Illustrator 30.1.0, SVG Export Plug-In . SVG Version: 2.1.1 Build 136)  -->
  <defs>
    <style>
      .st0 {
        stroke-width: 8.34px;
      }

      .st0, .st1, .st2, .st3 {
        fill: none;
        stroke: #707071;
        stroke-miterlimit: 10;
      }

      .st1 {
        stroke-width: 1.9px;
      }

      .st2 {
        stroke-width: 1.84px;
      }

      .st3 {
        stroke-width: 1.8px;
      }
    </style>
  </defs>
  <g>
    <g>
      <line class="st1" x1="400.33" y1="224.79" x2="503.29" y2="224.79"/>
      <line class="st1" x1="400.33" y1="210.96" x2="503.29" y2="210.96"/>
      <line class="st1" x1="400.33" y1="197.13" x2="503.29" y2="197.13"/>
      <line class="st1" x1="400.33" y1="183.3" x2="503.29" y2="183.3"/>
      <line class="st1" x1="400.33" y1="169.47" x2="503.29" y2="169.47"/>
      <line class="st1" x1="400.33" y1="155.64" x2="503.29" y2="155.64"/>
      <line class="st1" x1="400.33" y1="141.81" x2="503.29" y2="141.81"/>
      <line class="st1" x1="400.33" y1="127.98" x2="503.29" y2="127.98"/>
    </g>
    <path class="st1" d="M451.81,224.79v-123.41s0,123.41,0,123.41Z"/>
  </g>
  <g>
    <g>
      <line class="st3" x1="848.52" y1="476.1" x2="715.68" y2="476.1"/>
      <line class="st3" x1="848.52" y1="486.92" x2="715.68" y2="486.92"/>
      <line class="st3" x1="848.52" y1="497.74" x2="715.68" y2="497.74"/>
      <line class="st3" x1="848.52" y1="508.56" x2="715.68" y2="508.56"/>
      <line class="st3" x1="848.52" y1="519.38" x2="715.68" y2="519.38"/>
      <line class="st3" x1="848.52" y1="530.2" x2="715.68" y2="530.2"/>
    </g>
    <path class="st3" d="M782.1,476.1v68.97s0-68.97,0-68.97Z"/>
  </g>
  <g>
    <g>
      <line class="st2" x1="284.01" y1="462.65" x2="211.94" y2="462.65"/>
      <line class="st2" x1="284.01" y1="472.28" x2="211.94" y2="472.28"/>
      <line class="st2" x1="284.01" y1="481.92" x2="211.94" y2="481.92"/>
      <line class="st2" x1="284.01" y1="491.55" x2="211.94" y2="491.55"/>
      <line class="st2" x1="284.01" y1="501.19" x2="211.94" y2="501.19"/>
      <line class="st2" x1="284.01" y1="510.83" x2="211.94" y2="510.83"/>
      <line class="st2" x1="284.01" y1="520.46" x2="211.94" y2="520.46"/>
      <line class="st2" x1="284.01" y1="530.1" x2="211.94" y2="530.1"/>
    </g>
    <path class="st2" d="M247.97,462.64v85.66s0-85.66,0-85.66Z"/>
  </g>
  <line class="st0" x1="1088.12" y1="458.24" x2="1088.12" y2="548.62"/>
  <g>
    <line class="st0" x1="966.24" y1="180.2" x2="966.24" y2="419.7"/>
    <line class="st0" x1="894.04" y1="333.11" x2="966.24" y2="333.11"/>
    <line class="st0" x1="894.04" y1="270.68" x2="966.24" y2="270.68"/>
    <line class="st0" x1="966.24" y1="302.17" x2="1088.13" y2="302.17"/>
    <line class="st0" x1="1088.13" y1="156.86" x2="962.85" y2="156.86"/>
  </g>
  <line class="st0" x1="966.24" y1="101.38" x2="966.24" y2="136.96"/>
  <line class="st0" x1="847.17" y1="229.01" x2="847.17" y2="101.38"/>
  <line class="st0" x1="712.1" y1="225.69" x2="712.1" y2="101.38"/>
  <line class="st0" x1="628.02" y1="225.69" x2="821.93" y2="225.69"/>
  <line class="st0" x1="603.03" y1="228.93" x2="603.03" y2="101.38"/>
  <line class="st0" x1="503.29" y1="225.69" x2="503.29" y2="101.38"/>
  <line class="st0" x1="400.33" y1="225.69" x2="400.33" y2="101.38"/>
  <line class="st0" x1="332.34" y1="225.69" x2="332.34" y2="101.38"/>
  <polyline class="st0" points="264.36 101.38 264.36 225.69 137.06 225.69"/>
  <line class="st0" x1="290.09" y1="225.69" x2="374.59" y2="225.69"/>
  <polyline class="st0" points="848.52 548.62 111.87 548.3 111.87 101.38 1088.13 101.38 1088.13 548.62 1088.12 548.62 848.52 548.62 848.52 396.93 848.52 458.24 1088.12 458.24"/>
  <path class="st0" d="M111.87,548.3"/>
  <line class="st0" x1="399.65" y1="457.84" x2="111.87" y2="457.84"/>
  <line class="st0" x1="212.07" y1="355.66" x2="111.87" y2="355.66"/>
  <line class="st0" x1="209.1" y1="457.84" x2="209.1" y2="380.75"/>
  <line class="st0" x1="179.25" y1="424.99" x2="209.1" y2="424.99"/>
  <line class="st0" x1="165.08" y1="457.84" x2="165.08" y2="421.15"/>
  <line class="st0" x1="286.95" y1="457.84" x2="286.95" y2="374.9"/>
  <line class="st0" x1="374.4" y1="352.23" x2="283.93" y2="352.23"/>
  <line class="st0" x1="340.64" y1="457.84" x2="340.64" y2="352.23"/>
  <line class="st0" x1="399.65" y1="548.3" x2="399.65" y2="351.37"/>
  <line class="st0" x1="283.81" y1="548.3" x2="283.81" y2="457.84"/>
  <line class="st0" x1="211.75" y1="548.3" x2="211.75" y2="457.84"/>
  <line class="st0" x1="424.41" y1="416.67" x2="504.72" y2="416.67"/>
  <line class="st0" x1="503.37" y1="416.67" x2="588.94" y2="416.67"/>
  <polyline class="st0" points="504.72 548.3 504.72 368.5 559.68 368.5 559.88 368.5 559.88 416.67"/>
  <line class="st0" x1="504.72" y1="457.84" x2="821.81" y2="457.84"/>
  <line class="st0" x1="602.84" y1="458.4" x2="602.84" y2="352.29"/>
  <polyline class="st0" points="627.58 355.32 715.68 355.32 715.68 457.84"/>
  <line class="st0" x1="715.68" y1="457.84" x2="715.68" y2="548.3"/>
</svg>