<svg id="Layer_1" xmlns="http://www.w3.org/2000/svg" viewBox="0 0 1200 650">
  <defs>
    <style>
      .st0 { stroke-width: 1.8px; }
      .st0, .st1, .st2, .st3 {
        fill: none;
        stroke: #707071;
        stroke-miterlimit: 10;
      }
      .st1 { stroke-width: 8.34px; }
      .st2 { stroke-width: 1.84px; }
      .st3 { stroke-width: 1.9px; }
    </style>
  </defs>

  <!-- Top hatch -->
  <path class="st3" d="
    M696.71 224.79 L799.67 224.79
    M696.71 210.96 L799.67 210.96
    M696.71 197.13 L799.67 197.13
    M696.71 183.3  L799.67 183.3
    M696.71 169.47 L799.67 169.47
    M696.71 155.64 L799.67 155.64
    M696.71 141.81 L799.67 141.81
    M696.71 127.98 L799.67 127.98" />
  <path class="st3" d="M748.19 101.38 L748.19 224.79" />

  <!-- Bottom left hatch -->
  <path class="st0" d="
    M484.32 476.1 L351.48 476.1
    M484.32 486.92 L351.48 486.92
    M484.32 497.74 L351.48 497.74
    M484.32 508.56 L351.48 508.56
    M484.32 519.38 L351.48 519.38
    M484.32 530.2  L351.48 530.2" />
  <path class="st0" d="M417.9 545.07 L417.9 476.1" />

  <!-- Bottom right hatch -->
  <path class="st2" d="
    M988.06 462.65 L915.99 462.65
    M988.06 472.28 L915.99 472.28
    M988.06 481.92 L915.99 481.92
    M988.06 491.55 L915.99 491.55
    M988.06 501.19 L915.99 501.19
    M988.06 510.83 L915.99 510.83
    M988.06 520.46 L915.99 520.46
    M988.06 530.1  L915.99 530.1" />
  <path class="st2" d="M952.03 548.3 L952.03 462.65" />

  <!-- Structure lines -->
  <path class="st1" d="M111.88 548.62 L111.88 458.24" />

  <path class="st1" d="
    M233.76 419.7 L233.76 180.2
    M233.76 333.11 L305.96 333.11
    M233.76 270.68 L305.96 270.68
    M111.87 302.17 L233.76 302.17
    M237.15 156.86 L111.87 156.86" />

  <path class="st1" d="M233.76 136.96 L233.76 101.38" />
  <path class="st1" d="M352.83 101.38 L352.83 229.01" />
  <path class="st1" d="M487.9 101.38 L487.9 225.69" />
  <path class="st1" d="M378.07 225.69 L571.98 225.69" />
  <path class="st1" d="M596.97 101.38 L596.97 228.93" />
  <path class="st1" d="M696.71 101.38 L696.71 225.69" />
  <path class="st1" d="M799.67 101.38 L799.67 225.69" />
  <path class="st1" d="M867.66 101.38 L867.66 225.69" />

  <polyline class="st1" points="1062.94 225.69 935.64 225.69 935.64 101.38"/>
  <path class="st1" d="M825.41 225.69 L909.91 225.69" />

  <polyline class="st1" points="111.88 458.24 351.48 458.24 351.48 396.93 351.48 548.62 111.88 548.62 111.87 548.62 111.87 101.38 1088.13 101.38 1088.13 548.3 351.48 548.62"/>

  <path class="st1" d="M1088.13 457.84 L800.35 457.84" />
  <path class="st1" d="M1088.13 355.66 L987.93 355.66" />
  <path class="st1" d="M990.9 380.75 L990.9 457.84" />
  <path class="st1" d="M990.9 424.99 L1020.75 424.99" />
  <path class="st1" d="M1034.92 421.15 L1034.92 457.84" />
  <path class="st1" d="M913.05 374.9 L913.05 457.84" />
  <path class="st1" d="M916.07 352.23 L825.6 352.23" />
  <path class="st1" d="M859.36 352.23 L859.36 457.84" />
  <path class="st1" d="M800.35 351.37 L800.35 548.3" />
  <path class="st1" d="M916.19 457.84 L916.19 548.3" />
  <path class="st1" d="M988.25 457.84 L988.25 548.3" />
  <path class="st1" d="M695.28 416.67 L775.59 416.67" />
  <path class="st1" d="M611.06 416.67 L696.63 416.67" />

  <polyline class="st1" points="640.12 416.67 640.12 368.5 640.32 368.5 695.28 368.5 695.28 548.3"/>

  <path class="st1" d="M378.19 457.84 L695.28 457.84" />
  <path class="st1" d="M597.16 352.29 L597.16 458.4" />

  <polyline class="st1" points="484.32 457.84 484.32 355.32 572.42 355.32"/>

  <path class="st1" d="M484.32 548.3 L484.32 457.84" />
</svg>
